<svg width="1349" height="851" viewBox="0 0 1349 851" fill="none" xmlns="http://www.w3.org/2000/svg">
<path d="M1256.77 0.490471C1252.82 0.913289 1249.01 1.75892 1245.33 2.60456C919.986 65.4635 807.582 338.322 774.398 452.342C767.337 476.584 740.084 488.705 717.49 477.57C654.51 446.846 528.268 401.181 361.357 419.081C117.063 445.295 0 670.235 0 670.235L19.487 850.637C19.487 850.637 103.366 589.899 374.914 560.866C571.055 539.866 701.674 670.094 759.006 744.087C782.306 774.107 819.303 789.751 857.006 785.805C902.052 781.013 934.954 741.691 932.695 696.449C908.83 231.067 1274.42 164.403 1274.42 164.403C1319.75 159.47 1352.65 118.88 1347.71 73.638C1342.77 28.3965 1302.1 -4.44241 1256.77 0.490471Z" fill="url(#paint0_linear_1_2078)"/>
<defs>
<linearGradient id="paint0_linear_1_2078" x1="62.5041" y1="861.445" x2="1153.8" y2="125.103" gradientUnits="userSpaceOnUse">
<stop offset="0.04" stop-color="#292664" stop-opacity="0"/>
<stop offset="0.24" stop-color="#6B8ED2" stop-opacity="0.24"/>
<stop offset="0.43" stop-color="#5CBAFF"/>
<stop offset="0.75" stop-color="#E759AE"/>
<stop offset="0.99" stop-color="#F4475C"/>
</linearGradient>
</defs>
</svg>
